# xmcd CD database file
#
# Track frame offsets:
#	150
#	23934
#	48992
#	69127
#	88004
#	118397
#	143407
#	158367
#	186672
#	205407
#	229617
#	255224
#	274016
#	307239
#
# Disc length: 4491 seconds
#
# Revision: 0
# Processed by: cddbd v1.5.2PL0 Copyright (c) Steve Scherf et al.
# Submitted via: CDex 1.70beta3
#
DISCID=bd11890e
DTITLE=Various Artist - Routine Jazz Presents "Nouvelle Vague" 02 A Compilation Of Club Jazz Bands From Japan
DYEAR=2009
DGENRE=Jazz
TTITLE0=Toots Sweet (ALTERNATE TRACK) - Routine Jazz Quintet
TTITLE1=Jeannine - quasimode
TTITLE2=Get Along In My Life - Native
TTITLE3=Jazzy Joint featuring Jose James/ J.A.M
TTITLE4=Blackhair Blackeyes - Gen Hosokawa
TTITLE5=K.A.B.U.K.I asobi Session Tabu Zombie Shinobu Ishizaki JOINT - Yasumasa Kumagai
TTITLE6=Perfect Day - Kei Kobayashi feat. B-Bandj
TTITLE7=Yellow Soul Force - Mountain Mocha Kilimanjaro
TTITLE8=Secondbreak - AFLEX COMBO
TTITLE9=Night In Tunisia - Fascinated Session
TTITLE10=Offer Refused - Hakuei Kim Trio
TTITLE11=Cresent - Nomoto Harumi
TTITLE12=Dee-Dah - Nation Of The Multiverse
TTITLE13=Maria - quartz-head
EXTD=YEAR: 2009
EXTT0=
EXTT1=
EXTT2=
EXTT3=
EXTT4=
EXTT5=
EXTT6=
EXTT7=
EXTT8=
EXTT9=
EXTT10=
EXTT11=
EXTT12=
EXTT13=
PLAYORDER=
